<mxfile host="Electron" modified="2024-04-11T15:16:58.945Z" agent="Mozilla/5.0 (Windows NT 10.0; Win64; x64) AppleWebKit/537.36 (KHTML, like Gecko) draw.io/23.0.2 Chrome/120.0.6099.109 Electron/28.1.0 Safari/537.36" etag="HBHrtgLzO77qJu-iwF99" version="23.0.2" type="device">
  <diagram name="Page-1" id="-p2JKgfNbA_Xg02xRwl7">
    <mxGraphModel dx="733" dy="437" grid="1" gridSize="10" guides="1" tooltips="1" connect="1" arrows="1" fold="1" page="1" pageScale="1" pageWidth="850" pageHeight="1100" math="0" shadow="0">
      <root>
        <mxCell id="0" />
        <mxCell id="1" parent="0" />
        <mxCell id="2vNhyGkmXn_JSFe3iauv-1" value="Users" style="shape=table;startSize=30;container=1;collapsible=1;childLayout=tableLayout;fixedRows=1;rowLines=0;fontStyle=1;align=center;resizeLast=1;html=1;fillColor=#008a00;fontColor=#ffffff;strokeColor=#005700;swimlaneFillColor=none;shadow=0;rounded=0;strokeWidth=2;" vertex="1" parent="1">
          <mxGeometry x="40" y="40" width="240" height="240" as="geometry" />
        </mxCell>
        <mxCell id="2vNhyGkmXn_JSFe3iauv-2" value="" style="shape=tableRow;horizontal=0;startSize=0;swimlaneHead=0;swimlaneBody=0;fillColor=none;collapsible=0;dropTarget=0;points=[[0,0.5],[1,0.5]];portConstraint=eastwest;top=0;left=0;right=0;bottom=1;align=left;spacingTop=0;spacing=2;spacingRight=0;spacingLeft=8;rounded=1;verticalAlign=top;" vertex="1" parent="2vNhyGkmXn_JSFe3iauv-1">
          <mxGeometry y="30" width="240" height="30" as="geometry" />
        </mxCell>
        <mxCell id="2vNhyGkmXn_JSFe3iauv-3" value="Primary Key" style="shape=partialRectangle;connectable=0;top=0;left=0;bottom=0;right=0;fontStyle=1;overflow=hidden;whiteSpace=wrap;html=1;align=left;spacingTop=0;spacing=2;spacingRight=0;spacingLeft=8;rounded=1;verticalAlign=top;" vertex="1" parent="2vNhyGkmXn_JSFe3iauv-2">
          <mxGeometry width="90.00000000000011" height="30" as="geometry">
            <mxRectangle width="90.00000000000011" height="30" as="alternateBounds" />
          </mxGeometry>
        </mxCell>
        <mxCell id="2vNhyGkmXn_JSFe3iauv-4" value="ID" style="shape=partialRectangle;connectable=0;top=0;left=0;bottom=0;right=0;align=left;spacingLeft=8;fontStyle=5;overflow=hidden;whiteSpace=wrap;html=1;spacingTop=0;spacing=2;spacingRight=0;rounded=1;verticalAlign=top;" vertex="1" parent="2vNhyGkmXn_JSFe3iauv-2">
          <mxGeometry x="90.00000000000011" width="149.9999999999999" height="30" as="geometry">
            <mxRectangle width="149.9999999999999" height="30" as="alternateBounds" />
          </mxGeometry>
        </mxCell>
        <mxCell id="2vNhyGkmXn_JSFe3iauv-5" value="" style="shape=tableRow;horizontal=0;startSize=0;swimlaneHead=0;swimlaneBody=0;fillColor=none;collapsible=0;dropTarget=0;points=[[0,0.5],[1,0.5]];portConstraint=eastwest;top=0;left=0;right=0;bottom=0;align=left;spacingTop=0;spacing=2;spacingRight=0;spacingLeft=8;rounded=1;verticalAlign=top;" vertex="1" parent="2vNhyGkmXn_JSFe3iauv-1">
          <mxGeometry y="60" width="240" height="30" as="geometry" />
        </mxCell>
        <mxCell id="2vNhyGkmXn_JSFe3iauv-6" value="Varchar(32)" style="shape=partialRectangle;connectable=0;top=0;left=0;bottom=0;right=0;editable=1;overflow=hidden;whiteSpace=wrap;html=1;align=left;spacingTop=0;spacing=2;spacingRight=0;spacingLeft=8;rounded=1;verticalAlign=top;" vertex="1" parent="2vNhyGkmXn_JSFe3iauv-5">
          <mxGeometry width="90.00000000000011" height="30" as="geometry">
            <mxRectangle width="90.00000000000011" height="30" as="alternateBounds" />
          </mxGeometry>
        </mxCell>
        <mxCell id="2vNhyGkmXn_JSFe3iauv-7" value="Name" style="shape=partialRectangle;connectable=0;top=0;left=0;bottom=0;right=0;align=left;spacingLeft=8;overflow=hidden;whiteSpace=wrap;html=1;spacingTop=0;spacing=2;spacingRight=0;rounded=1;verticalAlign=top;" vertex="1" parent="2vNhyGkmXn_JSFe3iauv-5">
          <mxGeometry x="90.00000000000011" width="149.9999999999999" height="30" as="geometry">
            <mxRectangle width="149.9999999999999" height="30" as="alternateBounds" />
          </mxGeometry>
        </mxCell>
        <mxCell id="2vNhyGkmXn_JSFe3iauv-8" value="" style="shape=tableRow;horizontal=0;startSize=0;swimlaneHead=0;swimlaneBody=0;fillColor=none;collapsible=0;dropTarget=0;points=[[0,0.5],[1,0.5]];portConstraint=eastwest;top=0;left=0;right=0;bottom=0;align=left;spacingTop=0;spacing=2;spacingRight=0;spacingLeft=8;rounded=1;verticalAlign=top;" vertex="1" parent="2vNhyGkmXn_JSFe3iauv-1">
          <mxGeometry y="90" width="240" height="30" as="geometry" />
        </mxCell>
        <mxCell id="2vNhyGkmXn_JSFe3iauv-9" value="Varchar(32)" style="shape=partialRectangle;connectable=0;top=0;left=0;bottom=0;right=0;editable=1;overflow=hidden;whiteSpace=wrap;html=1;align=left;spacingTop=0;spacing=2;spacingRight=0;spacingLeft=8;rounded=1;verticalAlign=top;" vertex="1" parent="2vNhyGkmXn_JSFe3iauv-8">
          <mxGeometry width="90.00000000000011" height="30" as="geometry">
            <mxRectangle width="90.00000000000011" height="30" as="alternateBounds" />
          </mxGeometry>
        </mxCell>
        <mxCell id="2vNhyGkmXn_JSFe3iauv-10" value="Surname?" style="shape=partialRectangle;connectable=0;top=0;left=0;bottom=0;right=0;align=left;spacingLeft=8;overflow=hidden;whiteSpace=wrap;html=1;spacingTop=0;spacing=2;spacingRight=0;rounded=1;verticalAlign=top;" vertex="1" parent="2vNhyGkmXn_JSFe3iauv-8">
          <mxGeometry x="90.00000000000011" width="149.9999999999999" height="30" as="geometry">
            <mxRectangle width="149.9999999999999" height="30" as="alternateBounds" />
          </mxGeometry>
        </mxCell>
        <mxCell id="2vNhyGkmXn_JSFe3iauv-11" value="" style="shape=tableRow;horizontal=0;startSize=0;swimlaneHead=0;swimlaneBody=0;fillColor=none;collapsible=0;dropTarget=0;points=[[0,0.5],[1,0.5]];portConstraint=eastwest;top=0;left=0;right=0;bottom=0;align=left;spacingTop=0;spacing=2;spacingRight=0;spacingLeft=8;rounded=1;verticalAlign=top;" vertex="1" parent="2vNhyGkmXn_JSFe3iauv-1">
          <mxGeometry y="120" width="240" height="30" as="geometry" />
        </mxCell>
        <mxCell id="2vNhyGkmXn_JSFe3iauv-12" value="Varchar(32) Unique" style="shape=partialRectangle;connectable=0;top=0;left=0;bottom=0;right=0;editable=1;overflow=hidden;whiteSpace=wrap;html=1;align=left;spacingTop=0;spacing=2;spacingRight=0;spacingLeft=8;rounded=1;verticalAlign=top;" vertex="1" parent="2vNhyGkmXn_JSFe3iauv-11">
          <mxGeometry width="90.00000000000011" height="30" as="geometry">
            <mxRectangle width="90.00000000000011" height="30" as="alternateBounds" />
          </mxGeometry>
        </mxCell>
        <mxCell id="2vNhyGkmXn_JSFe3iauv-13" value="Email" style="shape=partialRectangle;connectable=0;top=0;left=0;bottom=0;right=0;align=left;spacingLeft=8;overflow=hidden;whiteSpace=wrap;html=1;spacingTop=0;spacing=2;spacingRight=0;rounded=1;verticalAlign=top;" vertex="1" parent="2vNhyGkmXn_JSFe3iauv-11">
          <mxGeometry x="90.00000000000011" width="149.9999999999999" height="30" as="geometry">
            <mxRectangle width="149.9999999999999" height="30" as="alternateBounds" />
          </mxGeometry>
        </mxCell>
        <mxCell id="2vNhyGkmXn_JSFe3iauv-31" value="" style="shape=tableRow;horizontal=0;startSize=0;swimlaneHead=0;swimlaneBody=0;fillColor=none;collapsible=0;dropTarget=0;points=[[0,0.5],[1,0.5]];portConstraint=eastwest;top=0;left=0;right=0;bottom=0;align=left;spacingTop=0;spacing=2;spacingRight=0;spacingLeft=8;rounded=1;verticalAlign=top;" vertex="1" parent="2vNhyGkmXn_JSFe3iauv-1">
          <mxGeometry y="150" width="240" height="30" as="geometry" />
        </mxCell>
        <mxCell id="2vNhyGkmXn_JSFe3iauv-32" value="Varchar(64)" style="shape=partialRectangle;connectable=0;top=0;left=0;bottom=0;right=0;editable=1;overflow=hidden;whiteSpace=wrap;html=1;align=left;spacingTop=0;spacing=2;spacingRight=0;spacingLeft=8;rounded=1;verticalAlign=top;" vertex="1" parent="2vNhyGkmXn_JSFe3iauv-31">
          <mxGeometry width="90.00000000000011" height="30" as="geometry">
            <mxRectangle width="90.00000000000011" height="30" as="alternateBounds" />
          </mxGeometry>
        </mxCell>
        <mxCell id="2vNhyGkmXn_JSFe3iauv-33" value="Password" style="shape=partialRectangle;connectable=0;top=0;left=0;bottom=0;right=0;align=left;spacingLeft=8;overflow=hidden;whiteSpace=wrap;html=1;spacingTop=0;spacing=2;spacingRight=0;rounded=1;verticalAlign=top;" vertex="1" parent="2vNhyGkmXn_JSFe3iauv-31">
          <mxGeometry x="90.00000000000011" width="149.9999999999999" height="30" as="geometry">
            <mxRectangle width="149.9999999999999" height="30" as="alternateBounds" />
          </mxGeometry>
        </mxCell>
        <mxCell id="2vNhyGkmXn_JSFe3iauv-37" value="" style="shape=tableRow;horizontal=0;startSize=0;swimlaneHead=0;swimlaneBody=0;fillColor=none;collapsible=0;dropTarget=0;points=[[0,0.5],[1,0.5]];portConstraint=eastwest;top=0;left=0;right=0;bottom=0;align=left;spacingTop=0;spacing=2;spacingRight=0;spacingLeft=8;rounded=1;verticalAlign=top;" vertex="1" parent="2vNhyGkmXn_JSFe3iauv-1">
          <mxGeometry y="180" width="240" height="30" as="geometry" />
        </mxCell>
        <mxCell id="2vNhyGkmXn_JSFe3iauv-38" value="Varchar(64)" style="shape=partialRectangle;connectable=0;top=0;left=0;bottom=0;right=0;editable=1;overflow=hidden;whiteSpace=wrap;html=1;align=left;spacingTop=0;spacing=2;spacingRight=0;spacingLeft=8;rounded=1;verticalAlign=top;" vertex="1" parent="2vNhyGkmXn_JSFe3iauv-37">
          <mxGeometry width="90.00000000000011" height="30" as="geometry">
            <mxRectangle width="90.00000000000011" height="30" as="alternateBounds" />
          </mxGeometry>
        </mxCell>
        <mxCell id="2vNhyGkmXn_JSFe3iauv-39" value="Avatar?" style="shape=partialRectangle;connectable=0;top=0;left=0;bottom=0;right=0;align=left;spacingLeft=8;overflow=hidden;whiteSpace=wrap;html=1;spacingTop=0;spacing=2;spacingRight=0;rounded=1;verticalAlign=top;" vertex="1" parent="2vNhyGkmXn_JSFe3iauv-37">
          <mxGeometry x="90.00000000000011" width="149.9999999999999" height="30" as="geometry">
            <mxRectangle width="149.9999999999999" height="30" as="alternateBounds" />
          </mxGeometry>
        </mxCell>
        <mxCell id="2vNhyGkmXn_JSFe3iauv-34" value="" style="shape=tableRow;horizontal=0;startSize=0;swimlaneHead=0;swimlaneBody=0;fillColor=none;collapsible=0;dropTarget=0;points=[[0,0.5],[1,0.5]];portConstraint=eastwest;top=0;left=0;right=0;bottom=0;align=left;spacingTop=0;spacing=2;spacingRight=0;spacingLeft=8;rounded=1;verticalAlign=top;" vertex="1" parent="2vNhyGkmXn_JSFe3iauv-1">
          <mxGeometry y="210" width="240" height="30" as="geometry" />
        </mxCell>
        <mxCell id="2vNhyGkmXn_JSFe3iauv-35" value="Date" style="shape=partialRectangle;connectable=0;top=0;left=0;bottom=0;right=0;editable=1;overflow=hidden;whiteSpace=wrap;html=1;align=left;spacingTop=0;spacing=2;spacingRight=0;spacingLeft=8;rounded=1;verticalAlign=top;" vertex="1" parent="2vNhyGkmXn_JSFe3iauv-34">
          <mxGeometry width="90.00000000000011" height="30" as="geometry">
            <mxRectangle width="90.00000000000011" height="30" as="alternateBounds" />
          </mxGeometry>
        </mxCell>
        <mxCell id="2vNhyGkmXn_JSFe3iauv-36" value="Birthday?" style="shape=partialRectangle;connectable=0;top=0;left=0;bottom=0;right=0;align=left;spacingLeft=8;overflow=hidden;whiteSpace=wrap;html=1;spacingTop=0;spacing=2;spacingRight=0;rounded=1;verticalAlign=top;" vertex="1" parent="2vNhyGkmXn_JSFe3iauv-34">
          <mxGeometry x="90.00000000000011" width="149.9999999999999" height="30" as="geometry">
            <mxRectangle width="149.9999999999999" height="30" as="alternateBounds" />
          </mxGeometry>
        </mxCell>
        <mxCell id="2vNhyGkmXn_JSFe3iauv-40" value="Projects" style="shape=table;startSize=30;container=1;collapsible=1;childLayout=tableLayout;fixedRows=1;rowLines=0;fontStyle=1;align=center;resizeLast=1;html=1;fillColor=#60a917;fontColor=#ffffff;strokeColor=#2D7600;swimlaneFillColor=none;shadow=0;rounded=0;strokeWidth=2;" vertex="1" parent="1">
          <mxGeometry x="360" y="40" width="240" height="240" as="geometry" />
        </mxCell>
        <mxCell id="2vNhyGkmXn_JSFe3iauv-41" value="" style="shape=tableRow;horizontal=0;startSize=0;swimlaneHead=0;swimlaneBody=0;fillColor=none;collapsible=0;dropTarget=0;points=[[0,0.5],[1,0.5]];portConstraint=eastwest;top=0;left=0;right=0;bottom=1;align=left;spacingTop=0;spacing=2;spacingRight=0;spacingLeft=8;rounded=1;verticalAlign=top;" vertex="1" parent="2vNhyGkmXn_JSFe3iauv-40">
          <mxGeometry y="30" width="240" height="30" as="geometry" />
        </mxCell>
        <mxCell id="2vNhyGkmXn_JSFe3iauv-42" value="Primary Key" style="shape=partialRectangle;connectable=0;top=0;left=0;bottom=0;right=0;fontStyle=1;overflow=hidden;whiteSpace=wrap;html=1;align=left;spacingTop=0;spacing=2;spacingRight=0;spacingLeft=8;rounded=1;verticalAlign=top;" vertex="1" parent="2vNhyGkmXn_JSFe3iauv-41">
          <mxGeometry width="90.00000000000011" height="30" as="geometry">
            <mxRectangle width="90.00000000000011" height="30" as="alternateBounds" />
          </mxGeometry>
        </mxCell>
        <mxCell id="2vNhyGkmXn_JSFe3iauv-43" value="ID" style="shape=partialRectangle;connectable=0;top=0;left=0;bottom=0;right=0;align=left;spacingLeft=8;fontStyle=5;overflow=hidden;whiteSpace=wrap;html=1;spacingTop=0;spacing=2;spacingRight=0;rounded=1;verticalAlign=top;" vertex="1" parent="2vNhyGkmXn_JSFe3iauv-41">
          <mxGeometry x="90.00000000000011" width="149.9999999999999" height="30" as="geometry">
            <mxRectangle width="149.9999999999999" height="30" as="alternateBounds" />
          </mxGeometry>
        </mxCell>
        <mxCell id="2vNhyGkmXn_JSFe3iauv-62" value="" style="shape=tableRow;horizontal=0;startSize=0;swimlaneHead=0;swimlaneBody=0;fillColor=none;collapsible=0;dropTarget=0;points=[[0,0.5],[1,0.5]];portConstraint=eastwest;top=0;left=0;right=0;bottom=1;align=left;spacingTop=0;spacing=2;spacingRight=0;spacingLeft=8;rounded=1;verticalAlign=top;" vertex="1" parent="2vNhyGkmXn_JSFe3iauv-40">
          <mxGeometry y="60" width="240" height="30" as="geometry" />
        </mxCell>
        <mxCell id="2vNhyGkmXn_JSFe3iauv-63" value="Foreign Key" style="shape=partialRectangle;connectable=0;top=0;left=0;bottom=0;right=0;fontStyle=1;overflow=hidden;whiteSpace=wrap;html=1;align=left;spacingTop=0;spacing=2;spacingRight=0;spacingLeft=8;rounded=1;verticalAlign=top;" vertex="1" parent="2vNhyGkmXn_JSFe3iauv-62">
          <mxGeometry width="90.00000000000011" height="30" as="geometry">
            <mxRectangle width="90.00000000000011" height="30" as="alternateBounds" />
          </mxGeometry>
        </mxCell>
        <mxCell id="2vNhyGkmXn_JSFe3iauv-64" value="UserID" style="shape=partialRectangle;connectable=0;top=0;left=0;bottom=0;right=0;align=left;spacingLeft=8;fontStyle=5;overflow=hidden;whiteSpace=wrap;html=1;spacingTop=0;spacing=2;spacingRight=0;rounded=1;verticalAlign=top;" vertex="1" parent="2vNhyGkmXn_JSFe3iauv-62">
          <mxGeometry x="90.00000000000011" width="149.9999999999999" height="30" as="geometry">
            <mxRectangle width="149.9999999999999" height="30" as="alternateBounds" />
          </mxGeometry>
        </mxCell>
        <mxCell id="2vNhyGkmXn_JSFe3iauv-44" value="" style="shape=tableRow;horizontal=0;startSize=0;swimlaneHead=0;swimlaneBody=0;fillColor=none;collapsible=0;dropTarget=0;points=[[0,0.5],[1,0.5]];portConstraint=eastwest;top=0;left=0;right=0;bottom=0;align=left;spacingTop=0;spacing=2;spacingRight=0;spacingLeft=8;rounded=1;verticalAlign=top;" vertex="1" parent="2vNhyGkmXn_JSFe3iauv-40">
          <mxGeometry y="90" width="240" height="30" as="geometry" />
        </mxCell>
        <mxCell id="2vNhyGkmXn_JSFe3iauv-45" value="Varchar(32)" style="shape=partialRectangle;connectable=0;top=0;left=0;bottom=0;right=0;editable=1;overflow=hidden;whiteSpace=wrap;html=1;align=left;spacingTop=0;spacing=2;spacingRight=0;spacingLeft=8;rounded=1;verticalAlign=top;" vertex="1" parent="2vNhyGkmXn_JSFe3iauv-44">
          <mxGeometry width="90.00000000000011" height="30" as="geometry">
            <mxRectangle width="90.00000000000011" height="30" as="alternateBounds" />
          </mxGeometry>
        </mxCell>
        <mxCell id="2vNhyGkmXn_JSFe3iauv-46" value="Name" style="shape=partialRectangle;connectable=0;top=0;left=0;bottom=0;right=0;align=left;spacingLeft=8;overflow=hidden;whiteSpace=wrap;html=1;spacingTop=0;spacing=2;spacingRight=0;rounded=1;verticalAlign=top;" vertex="1" parent="2vNhyGkmXn_JSFe3iauv-44">
          <mxGeometry x="90.00000000000011" width="149.9999999999999" height="30" as="geometry">
            <mxRectangle width="149.9999999999999" height="30" as="alternateBounds" />
          </mxGeometry>
        </mxCell>
        <mxCell id="2vNhyGkmXn_JSFe3iauv-47" value="" style="shape=tableRow;horizontal=0;startSize=0;swimlaneHead=0;swimlaneBody=0;fillColor=none;collapsible=0;dropTarget=0;points=[[0,0.5],[1,0.5]];portConstraint=eastwest;top=0;left=0;right=0;bottom=0;align=left;spacingTop=0;spacing=2;spacingRight=0;spacingLeft=8;rounded=1;verticalAlign=top;" vertex="1" parent="2vNhyGkmXn_JSFe3iauv-40">
          <mxGeometry y="120" width="240" height="30" as="geometry" />
        </mxCell>
        <mxCell id="2vNhyGkmXn_JSFe3iauv-48" value="Varchar(4)" style="shape=partialRectangle;connectable=0;top=0;left=0;bottom=0;right=0;editable=1;overflow=hidden;whiteSpace=wrap;html=1;align=left;spacingTop=0;spacing=2;spacingRight=0;spacingLeft=8;rounded=1;verticalAlign=top;" vertex="1" parent="2vNhyGkmXn_JSFe3iauv-47">
          <mxGeometry width="90.00000000000011" height="30" as="geometry">
            <mxRectangle width="90.00000000000011" height="30" as="alternateBounds" />
          </mxGeometry>
        </mxCell>
        <mxCell id="2vNhyGkmXn_JSFe3iauv-49" value="Icon?" style="shape=partialRectangle;connectable=0;top=0;left=0;bottom=0;right=0;align=left;spacingLeft=8;overflow=hidden;whiteSpace=wrap;html=1;spacingTop=0;spacing=2;spacingRight=0;rounded=1;verticalAlign=top;" vertex="1" parent="2vNhyGkmXn_JSFe3iauv-47">
          <mxGeometry x="90.00000000000011" width="149.9999999999999" height="30" as="geometry">
            <mxRectangle width="149.9999999999999" height="30" as="alternateBounds" />
          </mxGeometry>
        </mxCell>
        <mxCell id="2vNhyGkmXn_JSFe3iauv-85" value="" style="shape=tableRow;horizontal=0;startSize=0;swimlaneHead=0;swimlaneBody=0;fillColor=none;collapsible=0;dropTarget=0;points=[[0,0.5],[1,0.5]];portConstraint=eastwest;top=0;left=0;right=0;bottom=0;align=left;spacingTop=0;spacing=2;spacingRight=0;spacingLeft=8;rounded=1;verticalAlign=top;" vertex="1" parent="2vNhyGkmXn_JSFe3iauv-40">
          <mxGeometry y="150" width="240" height="30" as="geometry" />
        </mxCell>
        <mxCell id="2vNhyGkmXn_JSFe3iauv-86" value="Text" style="shape=partialRectangle;connectable=0;top=0;left=0;bottom=0;right=0;editable=1;overflow=hidden;whiteSpace=wrap;html=1;align=left;spacingTop=0;spacing=2;spacingRight=0;spacingLeft=8;rounded=1;verticalAlign=top;" vertex="1" parent="2vNhyGkmXn_JSFe3iauv-85">
          <mxGeometry width="90.00000000000011" height="30" as="geometry">
            <mxRectangle width="90.00000000000011" height="30" as="alternateBounds" />
          </mxGeometry>
        </mxCell>
        <mxCell id="2vNhyGkmXn_JSFe3iauv-87" value="Description?" style="shape=partialRectangle;connectable=0;top=0;left=0;bottom=0;right=0;align=left;spacingLeft=8;overflow=hidden;whiteSpace=wrap;html=1;spacingTop=0;spacing=2;spacingRight=0;rounded=1;verticalAlign=top;" vertex="1" parent="2vNhyGkmXn_JSFe3iauv-85">
          <mxGeometry x="90.00000000000011" width="149.9999999999999" height="30" as="geometry">
            <mxRectangle width="149.9999999999999" height="30" as="alternateBounds" />
          </mxGeometry>
        </mxCell>
        <mxCell id="2vNhyGkmXn_JSFe3iauv-79" value="" style="shape=tableRow;horizontal=0;startSize=0;swimlaneHead=0;swimlaneBody=0;fillColor=none;collapsible=0;dropTarget=0;points=[[0,0.5],[1,0.5]];portConstraint=eastwest;top=0;left=0;right=0;bottom=0;align=left;spacingTop=0;spacing=2;spacingRight=0;spacingLeft=8;rounded=1;verticalAlign=top;" vertex="1" parent="2vNhyGkmXn_JSFe3iauv-40">
          <mxGeometry y="180" width="240" height="30" as="geometry" />
        </mxCell>
        <mxCell id="2vNhyGkmXn_JSFe3iauv-80" value="DateTime" style="shape=partialRectangle;connectable=0;top=0;left=0;bottom=0;right=0;editable=1;overflow=hidden;whiteSpace=wrap;html=1;align=left;spacingTop=0;spacing=2;spacingRight=0;spacingLeft=8;rounded=1;verticalAlign=top;" vertex="1" parent="2vNhyGkmXn_JSFe3iauv-79">
          <mxGeometry width="90.00000000000011" height="30" as="geometry">
            <mxRectangle width="90.00000000000011" height="30" as="alternateBounds" />
          </mxGeometry>
        </mxCell>
        <mxCell id="2vNhyGkmXn_JSFe3iauv-81" value="CreationTime" style="shape=partialRectangle;connectable=0;top=0;left=0;bottom=0;right=0;align=left;spacingLeft=8;overflow=hidden;whiteSpace=wrap;html=1;spacingTop=0;spacing=2;spacingRight=0;rounded=1;verticalAlign=top;" vertex="1" parent="2vNhyGkmXn_JSFe3iauv-79">
          <mxGeometry x="90.00000000000011" width="149.9999999999999" height="30" as="geometry">
            <mxRectangle width="149.9999999999999" height="30" as="alternateBounds" />
          </mxGeometry>
        </mxCell>
        <mxCell id="2vNhyGkmXn_JSFe3iauv-82" value="" style="shape=tableRow;horizontal=0;startSize=0;swimlaneHead=0;swimlaneBody=0;fillColor=none;collapsible=0;dropTarget=0;points=[[0,0.5],[1,0.5]];portConstraint=eastwest;top=0;left=0;right=0;bottom=0;align=left;spacingTop=0;spacing=2;spacingRight=0;spacingLeft=8;rounded=1;verticalAlign=top;" vertex="1" parent="2vNhyGkmXn_JSFe3iauv-40">
          <mxGeometry y="210" width="240" height="30" as="geometry" />
        </mxCell>
        <mxCell id="2vNhyGkmXn_JSFe3iauv-83" value="DateTime" style="shape=partialRectangle;connectable=0;top=0;left=0;bottom=0;right=0;editable=1;overflow=hidden;whiteSpace=wrap;html=1;align=left;spacingTop=0;spacing=2;spacingRight=0;spacingLeft=8;rounded=1;verticalAlign=top;" vertex="1" parent="2vNhyGkmXn_JSFe3iauv-82">
          <mxGeometry width="90.00000000000011" height="30" as="geometry">
            <mxRectangle width="90.00000000000011" height="30" as="alternateBounds" />
          </mxGeometry>
        </mxCell>
        <mxCell id="2vNhyGkmXn_JSFe3iauv-84" value="UpdateTime" style="shape=partialRectangle;connectable=0;top=0;left=0;bottom=0;right=0;align=left;spacingLeft=8;overflow=hidden;whiteSpace=wrap;html=1;spacingTop=0;spacing=2;spacingRight=0;rounded=1;verticalAlign=top;" vertex="1" parent="2vNhyGkmXn_JSFe3iauv-82">
          <mxGeometry x="90.00000000000011" width="149.9999999999999" height="30" as="geometry">
            <mxRectangle width="149.9999999999999" height="30" as="alternateBounds" />
          </mxGeometry>
        </mxCell>
        <mxCell id="2vNhyGkmXn_JSFe3iauv-91" style="edgeStyle=orthogonalEdgeStyle;rounded=1;orthogonalLoop=1;jettySize=auto;html=1;exitX=0;exitY=0.5;exitDx=0;exitDy=0;entryX=0;entryY=0.5;entryDx=0;entryDy=0;startArrow=ERmany;startFill=0;endArrow=ERone;endFill=0;jumpStyle=arc;verticalAlign=top;spacingTop=0;spacingLeft=8;" edge="1" parent="1" source="2vNhyGkmXn_JSFe3iauv-88" target="2vNhyGkmXn_JSFe3iauv-67">
          <mxGeometry relative="1" as="geometry" />
        </mxCell>
        <mxCell id="2vNhyGkmXn_JSFe3iauv-65" style="edgeStyle=orthogonalEdgeStyle;rounded=1;orthogonalLoop=1;jettySize=auto;html=1;exitX=0;exitY=0.5;exitDx=0;exitDy=0;entryX=1;entryY=0.5;entryDx=0;entryDy=0;endArrow=ERone;endFill=0;startArrow=ERmany;startFill=0;align=left;spacingTop=0;spacing=2;spacingRight=0;spacingLeft=8;jumpStyle=arc;verticalAlign=top;" edge="1" parent="1" source="2vNhyGkmXn_JSFe3iauv-62" target="2vNhyGkmXn_JSFe3iauv-2">
          <mxGeometry relative="1" as="geometry" />
        </mxCell>
        <mxCell id="2vNhyGkmXn_JSFe3iauv-66" value="Tasks" style="shape=table;startSize=30;container=1;collapsible=1;childLayout=tableLayout;fixedRows=1;rowLines=0;fontStyle=1;align=center;resizeLast=1;html=1;fillColor=#0050ef;fontColor=#ffffff;strokeColor=#001DBC;swimlaneFillColor=none;shadow=0;rounded=0;strokeWidth=2;" vertex="1" parent="1">
          <mxGeometry x="680" y="40" width="240.0000000000001" height="490" as="geometry" />
        </mxCell>
        <mxCell id="2vNhyGkmXn_JSFe3iauv-67" value="" style="shape=tableRow;horizontal=0;startSize=0;swimlaneHead=0;swimlaneBody=0;fillColor=none;collapsible=0;dropTarget=0;points=[[0,0.5],[1,0.5]];portConstraint=eastwest;top=0;left=0;right=0;bottom=1;align=left;spacingTop=0;spacing=2;spacingRight=0;spacingLeft=8;rounded=1;verticalAlign=top;" vertex="1" parent="2vNhyGkmXn_JSFe3iauv-66">
          <mxGeometry y="30" width="240.0000000000001" height="30" as="geometry" />
        </mxCell>
        <mxCell id="2vNhyGkmXn_JSFe3iauv-68" value="Primary Key" style="shape=partialRectangle;connectable=0;top=0;left=0;bottom=0;right=0;fontStyle=1;overflow=hidden;whiteSpace=wrap;html=1;align=left;spacingTop=0;spacing=2;spacingRight=0;spacingLeft=8;rounded=1;verticalAlign=top;" vertex="1" parent="2vNhyGkmXn_JSFe3iauv-67">
          <mxGeometry width="90.00000000000011" height="30" as="geometry">
            <mxRectangle width="90.00000000000011" height="30" as="alternateBounds" />
          </mxGeometry>
        </mxCell>
        <mxCell id="2vNhyGkmXn_JSFe3iauv-69" value="ID" style="shape=partialRectangle;connectable=0;top=0;left=0;bottom=0;right=0;align=left;spacingLeft=8;fontStyle=5;overflow=hidden;whiteSpace=wrap;html=1;spacingTop=0;spacing=2;spacingRight=0;rounded=1;verticalAlign=top;" vertex="1" parent="2vNhyGkmXn_JSFe3iauv-67">
          <mxGeometry x="90.00000000000011" width="150" height="30" as="geometry">
            <mxRectangle width="150" height="30" as="alternateBounds" />
          </mxGeometry>
        </mxCell>
        <mxCell id="2vNhyGkmXn_JSFe3iauv-70" value="" style="shape=tableRow;horizontal=0;startSize=0;swimlaneHead=0;swimlaneBody=0;fillColor=none;collapsible=0;dropTarget=0;points=[[0,0.5],[1,0.5]];portConstraint=eastwest;top=0;left=0;right=0;bottom=1;align=left;spacingTop=0;spacing=2;spacingRight=0;spacingLeft=8;rounded=1;verticalAlign=top;" vertex="1" parent="2vNhyGkmXn_JSFe3iauv-66">
          <mxGeometry y="60" width="240.0000000000001" height="30" as="geometry" />
        </mxCell>
        <mxCell id="2vNhyGkmXn_JSFe3iauv-71" value="Foreign Key" style="shape=partialRectangle;connectable=0;top=0;left=0;bottom=0;right=0;fontStyle=1;overflow=hidden;whiteSpace=wrap;html=1;align=left;spacingTop=0;spacing=2;spacingRight=0;spacingLeft=8;rounded=1;verticalAlign=top;" vertex="1" parent="2vNhyGkmXn_JSFe3iauv-70">
          <mxGeometry width="90.00000000000011" height="30" as="geometry">
            <mxRectangle width="90.00000000000011" height="30" as="alternateBounds" />
          </mxGeometry>
        </mxCell>
        <mxCell id="2vNhyGkmXn_JSFe3iauv-72" value="ProjectID" style="shape=partialRectangle;connectable=0;top=0;left=0;bottom=0;right=0;align=left;spacingLeft=8;fontStyle=5;overflow=hidden;whiteSpace=wrap;html=1;spacingTop=0;spacing=2;spacingRight=0;rounded=1;verticalAlign=top;" vertex="1" parent="2vNhyGkmXn_JSFe3iauv-70">
          <mxGeometry x="90.00000000000011" width="150" height="30" as="geometry">
            <mxRectangle width="150" height="30" as="alternateBounds" />
          </mxGeometry>
        </mxCell>
        <mxCell id="2vNhyGkmXn_JSFe3iauv-88" value="" style="shape=tableRow;horizontal=0;startSize=0;swimlaneHead=0;swimlaneBody=0;fillColor=none;collapsible=0;dropTarget=0;points=[[0,0.5],[1,0.5]];portConstraint=eastwest;top=0;left=0;right=0;bottom=1;align=left;spacingTop=0;spacing=2;spacingRight=0;spacingLeft=8;rounded=1;verticalAlign=top;" vertex="1" parent="2vNhyGkmXn_JSFe3iauv-66">
          <mxGeometry y="90" width="240.0000000000001" height="30" as="geometry" />
        </mxCell>
        <mxCell id="2vNhyGkmXn_JSFe3iauv-89" value="Foreign Key" style="shape=partialRectangle;connectable=0;top=0;left=0;bottom=0;right=0;fontStyle=1;overflow=hidden;whiteSpace=wrap;html=1;align=left;spacingTop=0;spacing=2;spacingRight=0;spacingLeft=8;rounded=1;verticalAlign=top;" vertex="1" parent="2vNhyGkmXn_JSFe3iauv-88">
          <mxGeometry width="90.00000000000011" height="30" as="geometry">
            <mxRectangle width="90.00000000000011" height="30" as="alternateBounds" />
          </mxGeometry>
        </mxCell>
        <mxCell id="2vNhyGkmXn_JSFe3iauv-90" value="TaskID?" style="shape=partialRectangle;connectable=0;top=0;left=0;bottom=0;right=0;align=left;spacingLeft=8;fontStyle=5;overflow=hidden;whiteSpace=wrap;html=1;spacingTop=0;spacing=2;spacingRight=0;rounded=1;verticalAlign=top;" vertex="1" parent="2vNhyGkmXn_JSFe3iauv-88">
          <mxGeometry x="90.00000000000011" width="150" height="30" as="geometry">
            <mxRectangle width="150" height="30" as="alternateBounds" />
          </mxGeometry>
        </mxCell>
        <mxCell id="2vNhyGkmXn_JSFe3iauv-73" value="" style="shape=tableRow;horizontal=0;startSize=0;swimlaneHead=0;swimlaneBody=0;fillColor=none;collapsible=0;dropTarget=0;points=[[0,0.5],[1,0.5]];portConstraint=eastwest;top=0;left=0;right=0;bottom=0;align=left;spacingTop=0;spacing=2;spacingRight=0;spacingLeft=8;rounded=1;verticalAlign=top;" vertex="1" parent="2vNhyGkmXn_JSFe3iauv-66">
          <mxGeometry y="120" width="240.0000000000001" height="30" as="geometry" />
        </mxCell>
        <mxCell id="2vNhyGkmXn_JSFe3iauv-74" value="Varchar(32)" style="shape=partialRectangle;connectable=0;top=0;left=0;bottom=0;right=0;editable=1;overflow=hidden;whiteSpace=wrap;html=1;align=left;spacingTop=0;spacing=2;spacingRight=0;spacingLeft=8;rounded=1;verticalAlign=top;" vertex="1" parent="2vNhyGkmXn_JSFe3iauv-73">
          <mxGeometry width="90.00000000000011" height="30" as="geometry">
            <mxRectangle width="90.00000000000011" height="30" as="alternateBounds" />
          </mxGeometry>
        </mxCell>
        <mxCell id="2vNhyGkmXn_JSFe3iauv-75" value="Name" style="shape=partialRectangle;connectable=0;top=0;left=0;bottom=0;right=0;align=left;spacingLeft=8;overflow=hidden;whiteSpace=wrap;html=1;spacingTop=0;spacing=2;spacingRight=0;rounded=1;verticalAlign=top;" vertex="1" parent="2vNhyGkmXn_JSFe3iauv-73">
          <mxGeometry x="90.00000000000011" width="150" height="30" as="geometry">
            <mxRectangle width="150" height="30" as="alternateBounds" />
          </mxGeometry>
        </mxCell>
        <mxCell id="2vNhyGkmXn_JSFe3iauv-76" value="" style="shape=tableRow;horizontal=0;startSize=0;swimlaneHead=0;swimlaneBody=0;fillColor=none;collapsible=0;dropTarget=0;points=[[0,0.5],[1,0.5]];portConstraint=eastwest;top=0;left=0;right=0;bottom=0;align=left;spacingTop=0;spacing=2;spacingRight=0;spacingLeft=8;rounded=1;verticalAlign=top;" vertex="1" parent="2vNhyGkmXn_JSFe3iauv-66">
          <mxGeometry y="150" width="240.0000000000001" height="30" as="geometry" />
        </mxCell>
        <mxCell id="2vNhyGkmXn_JSFe3iauv-77" value="Varchar(4)" style="shape=partialRectangle;connectable=0;top=0;left=0;bottom=0;right=0;editable=1;overflow=hidden;whiteSpace=wrap;html=1;align=left;spacingTop=0;spacing=2;spacingRight=0;spacingLeft=8;rounded=1;verticalAlign=top;" vertex="1" parent="2vNhyGkmXn_JSFe3iauv-76">
          <mxGeometry width="90.00000000000011" height="30" as="geometry">
            <mxRectangle width="90.00000000000011" height="30" as="alternateBounds" />
          </mxGeometry>
        </mxCell>
        <mxCell id="2vNhyGkmXn_JSFe3iauv-78" value="Icon?" style="shape=partialRectangle;connectable=0;top=0;left=0;bottom=0;right=0;align=left;spacingLeft=8;overflow=hidden;whiteSpace=wrap;html=1;spacingTop=0;spacing=2;spacingRight=0;rounded=1;verticalAlign=top;" vertex="1" parent="2vNhyGkmXn_JSFe3iauv-76">
          <mxGeometry x="90.00000000000011" width="150" height="30" as="geometry">
            <mxRectangle width="150" height="30" as="alternateBounds" />
          </mxGeometry>
        </mxCell>
        <mxCell id="2vNhyGkmXn_JSFe3iauv-95" value="" style="shape=tableRow;horizontal=0;startSize=0;swimlaneHead=0;swimlaneBody=0;fillColor=none;collapsible=0;dropTarget=0;points=[[0,0.5],[1,0.5]];portConstraint=eastwest;top=0;left=0;right=0;bottom=0;align=left;spacingTop=0;spacing=2;spacingRight=0;spacingLeft=8;rounded=1;verticalAlign=top;" vertex="1" parent="2vNhyGkmXn_JSFe3iauv-66">
          <mxGeometry y="180" width="240.0000000000001" height="30" as="geometry" />
        </mxCell>
        <mxCell id="2vNhyGkmXn_JSFe3iauv-96" value="Text" style="shape=partialRectangle;connectable=0;top=0;left=0;bottom=0;right=0;editable=1;overflow=hidden;whiteSpace=wrap;html=1;align=left;spacingTop=0;spacing=2;spacingRight=0;spacingLeft=8;rounded=1;verticalAlign=top;" vertex="1" parent="2vNhyGkmXn_JSFe3iauv-95">
          <mxGeometry width="90.00000000000011" height="30" as="geometry">
            <mxRectangle width="90.00000000000011" height="30" as="alternateBounds" />
          </mxGeometry>
        </mxCell>
        <mxCell id="2vNhyGkmXn_JSFe3iauv-97" value="Description?" style="shape=partialRectangle;connectable=0;top=0;left=0;bottom=0;right=0;align=left;spacingLeft=8;overflow=hidden;whiteSpace=wrap;html=1;spacingTop=0;spacing=2;spacingRight=0;rounded=1;verticalAlign=top;" vertex="1" parent="2vNhyGkmXn_JSFe3iauv-95">
          <mxGeometry x="90.00000000000011" width="150" height="30" as="geometry">
            <mxRectangle width="150" height="30" as="alternateBounds" />
          </mxGeometry>
        </mxCell>
        <mxCell id="2vNhyGkmXn_JSFe3iauv-98" value="" style="shape=tableRow;horizontal=0;startSize=0;swimlaneHead=0;swimlaneBody=0;fillColor=none;collapsible=0;dropTarget=0;points=[[0,0.5],[1,0.5]];portConstraint=eastwest;top=0;left=0;right=0;bottom=0;align=left;spacingTop=0;spacing=2;spacingRight=0;spacingLeft=8;rounded=1;verticalAlign=top;" vertex="1" parent="2vNhyGkmXn_JSFe3iauv-66">
          <mxGeometry y="210" width="240.0000000000001" height="30" as="geometry" />
        </mxCell>
        <mxCell id="2vNhyGkmXn_JSFe3iauv-99" value="DateTime" style="shape=partialRectangle;connectable=0;top=0;left=0;bottom=0;right=0;editable=1;overflow=hidden;whiteSpace=wrap;html=1;align=left;spacingTop=0;spacing=2;spacingRight=0;spacingLeft=8;rounded=1;verticalAlign=top;" vertex="1" parent="2vNhyGkmXn_JSFe3iauv-98">
          <mxGeometry width="90.00000000000011" height="30" as="geometry">
            <mxRectangle width="90.00000000000011" height="30" as="alternateBounds" />
          </mxGeometry>
        </mxCell>
        <mxCell id="2vNhyGkmXn_JSFe3iauv-100" value="CreationTime" style="shape=partialRectangle;connectable=0;top=0;left=0;bottom=0;right=0;align=left;spacingLeft=8;overflow=hidden;whiteSpace=wrap;html=1;spacingTop=0;spacing=2;spacingRight=0;rounded=1;verticalAlign=top;" vertex="1" parent="2vNhyGkmXn_JSFe3iauv-98">
          <mxGeometry x="90.00000000000011" width="150" height="30" as="geometry">
            <mxRectangle width="150" height="30" as="alternateBounds" />
          </mxGeometry>
        </mxCell>
        <mxCell id="2vNhyGkmXn_JSFe3iauv-101" value="" style="shape=tableRow;horizontal=0;startSize=0;swimlaneHead=0;swimlaneBody=0;fillColor=none;collapsible=0;dropTarget=0;points=[[0,0.5],[1,0.5]];portConstraint=eastwest;top=0;left=0;right=0;bottom=0;align=left;spacingTop=0;spacing=2;spacingRight=0;spacingLeft=8;rounded=1;verticalAlign=top;" vertex="1" parent="2vNhyGkmXn_JSFe3iauv-66">
          <mxGeometry y="240" width="240.0000000000001" height="30" as="geometry" />
        </mxCell>
        <mxCell id="2vNhyGkmXn_JSFe3iauv-102" value="DateTime" style="shape=partialRectangle;connectable=0;top=0;left=0;bottom=0;right=0;editable=1;overflow=hidden;whiteSpace=wrap;html=1;align=left;spacingTop=0;spacing=2;spacingRight=0;spacingLeft=8;rounded=1;verticalAlign=top;" vertex="1" parent="2vNhyGkmXn_JSFe3iauv-101">
          <mxGeometry width="90.00000000000011" height="30" as="geometry">
            <mxRectangle width="90.00000000000011" height="30" as="alternateBounds" />
          </mxGeometry>
        </mxCell>
        <mxCell id="2vNhyGkmXn_JSFe3iauv-103" value="UpdateTime" style="shape=partialRectangle;connectable=0;top=0;left=0;bottom=0;right=0;align=left;spacingLeft=8;overflow=hidden;whiteSpace=wrap;html=1;spacingTop=0;spacing=2;spacingRight=0;rounded=1;verticalAlign=top;" vertex="1" parent="2vNhyGkmXn_JSFe3iauv-101">
          <mxGeometry x="90.00000000000011" width="150" height="30" as="geometry">
            <mxRectangle width="150" height="30" as="alternateBounds" />
          </mxGeometry>
        </mxCell>
        <mxCell id="2vNhyGkmXn_JSFe3iauv-137" value="" style="shape=tableRow;horizontal=0;startSize=0;swimlaneHead=0;swimlaneBody=0;fillColor=none;collapsible=0;dropTarget=0;points=[[0,0.5],[1,0.5]];portConstraint=eastwest;top=0;left=0;right=0;bottom=0;align=left;spacingTop=0;spacing=2;spacingRight=0;spacingLeft=8;rounded=1;verticalAlign=top;" vertex="1" parent="2vNhyGkmXn_JSFe3iauv-66">
          <mxGeometry y="270" width="240.0000000000001" height="30" as="geometry" />
        </mxCell>
        <mxCell id="2vNhyGkmXn_JSFe3iauv-138" value="DateTime" style="shape=partialRectangle;connectable=0;top=0;left=0;bottom=0;right=0;editable=1;overflow=hidden;whiteSpace=wrap;html=1;align=left;spacingTop=0;spacing=2;spacingRight=0;spacingLeft=8;rounded=1;verticalAlign=top;" vertex="1" parent="2vNhyGkmXn_JSFe3iauv-137">
          <mxGeometry width="90.00000000000011" height="30" as="geometry">
            <mxRectangle width="90.00000000000011" height="30" as="alternateBounds" />
          </mxGeometry>
        </mxCell>
        <mxCell id="2vNhyGkmXn_JSFe3iauv-139" value="DueTime?" style="shape=partialRectangle;connectable=0;top=0;left=0;bottom=0;right=0;align=left;spacingLeft=8;overflow=hidden;whiteSpace=wrap;html=1;spacingTop=0;spacing=2;spacingRight=0;rounded=1;verticalAlign=top;" vertex="1" parent="2vNhyGkmXn_JSFe3iauv-137">
          <mxGeometry x="90.00000000000011" width="150" height="30" as="geometry">
            <mxRectangle width="150" height="30" as="alternateBounds" />
          </mxGeometry>
        </mxCell>
        <mxCell id="2vNhyGkmXn_JSFe3iauv-186" value="" style="shape=tableRow;horizontal=0;startSize=0;swimlaneHead=0;swimlaneBody=0;fillColor=none;collapsible=0;dropTarget=0;points=[[0,0.5],[1,0.5]];portConstraint=eastwest;top=0;left=0;right=0;bottom=0;align=left;spacingTop=0;spacing=2;spacingRight=0;spacingLeft=8;rounded=1;verticalAlign=top;" vertex="1" parent="2vNhyGkmXn_JSFe3iauv-66">
          <mxGeometry y="300" width="240.0000000000001" height="30" as="geometry" />
        </mxCell>
        <mxCell id="2vNhyGkmXn_JSFe3iauv-187" value="Boolean" style="shape=partialRectangle;connectable=0;top=0;left=0;bottom=0;right=0;editable=1;overflow=hidden;whiteSpace=wrap;html=1;align=left;spacingTop=0;spacing=2;spacingRight=0;spacingLeft=8;rounded=1;verticalAlign=top;" vertex="1" parent="2vNhyGkmXn_JSFe3iauv-186">
          <mxGeometry width="90.00000000000011" height="30" as="geometry">
            <mxRectangle width="90.00000000000011" height="30" as="alternateBounds" />
          </mxGeometry>
        </mxCell>
        <mxCell id="2vNhyGkmXn_JSFe3iauv-188" value="IsCompleted" style="shape=partialRectangle;connectable=0;top=0;left=0;bottom=0;right=0;align=left;spacingLeft=8;overflow=hidden;whiteSpace=wrap;html=1;spacingTop=0;spacing=2;spacingRight=0;rounded=1;verticalAlign=top;" vertex="1" parent="2vNhyGkmXn_JSFe3iauv-186">
          <mxGeometry x="90.00000000000011" width="150" height="30" as="geometry">
            <mxRectangle width="150" height="30" as="alternateBounds" />
          </mxGeometry>
        </mxCell>
        <mxCell id="2vNhyGkmXn_JSFe3iauv-189" value="" style="shape=tableRow;horizontal=0;startSize=0;swimlaneHead=0;swimlaneBody=0;fillColor=none;collapsible=0;dropTarget=0;points=[[0,0.5],[1,0.5]];portConstraint=eastwest;top=0;left=0;right=0;bottom=0;align=left;spacingTop=0;spacing=2;spacingRight=0;spacingLeft=8;rounded=1;verticalAlign=top;" vertex="1" parent="2vNhyGkmXn_JSFe3iauv-66">
          <mxGeometry y="330" width="240.0000000000001" height="30" as="geometry" />
        </mxCell>
        <mxCell id="2vNhyGkmXn_JSFe3iauv-190" value="Boolean" style="shape=partialRectangle;connectable=0;top=0;left=0;bottom=0;right=0;editable=1;overflow=hidden;whiteSpace=wrap;html=1;align=left;spacingTop=0;spacing=2;spacingRight=0;spacingLeft=8;rounded=1;verticalAlign=top;" vertex="1" parent="2vNhyGkmXn_JSFe3iauv-189">
          <mxGeometry width="90.00000000000011" height="30" as="geometry">
            <mxRectangle width="90.00000000000011" height="30" as="alternateBounds" />
          </mxGeometry>
        </mxCell>
        <mxCell id="2vNhyGkmXn_JSFe3iauv-191" value="IsStarred" style="shape=partialRectangle;connectable=0;top=0;left=0;bottom=0;right=0;align=left;spacingLeft=8;overflow=hidden;whiteSpace=wrap;html=1;spacingTop=0;spacing=2;spacingRight=0;rounded=1;verticalAlign=top;" vertex="1" parent="2vNhyGkmXn_JSFe3iauv-189">
          <mxGeometry x="90.00000000000011" width="150" height="30" as="geometry">
            <mxRectangle width="150" height="30" as="alternateBounds" />
          </mxGeometry>
        </mxCell>
        <mxCell id="2vNhyGkmXn_JSFe3iauv-183" value="" style="shape=tableRow;horizontal=0;startSize=0;swimlaneHead=0;swimlaneBody=0;fillColor=none;collapsible=0;dropTarget=0;points=[[0,0.5],[1,0.5]];portConstraint=eastwest;top=0;left=0;right=0;bottom=0;align=left;spacingTop=0;spacing=2;spacingRight=0;spacingLeft=8;rounded=1;verticalAlign=top;" vertex="1" parent="2vNhyGkmXn_JSFe3iauv-66">
          <mxGeometry y="360" width="240.0000000000001" height="30" as="geometry" />
        </mxCell>
        <mxCell id="2vNhyGkmXn_JSFe3iauv-184" value="Number(16^6)" style="shape=partialRectangle;connectable=0;top=0;left=0;bottom=0;right=0;editable=1;overflow=hidden;whiteSpace=wrap;html=1;align=left;spacingTop=0;spacing=2;spacingRight=0;spacingLeft=8;rounded=1;verticalAlign=top;" vertex="1" parent="2vNhyGkmXn_JSFe3iauv-183">
          <mxGeometry width="90.00000000000011" height="30" as="geometry">
            <mxRectangle width="90.00000000000011" height="30" as="alternateBounds" />
          </mxGeometry>
        </mxCell>
        <mxCell id="2vNhyGkmXn_JSFe3iauv-185" value="Colour?" style="shape=partialRectangle;connectable=0;top=0;left=0;bottom=0;right=0;align=left;spacingLeft=8;overflow=hidden;whiteSpace=wrap;html=1;spacingTop=0;spacing=2;spacingRight=0;rounded=1;verticalAlign=top;" vertex="1" parent="2vNhyGkmXn_JSFe3iauv-183">
          <mxGeometry x="90.00000000000011" width="150" height="30" as="geometry">
            <mxRectangle width="150" height="30" as="alternateBounds" />
          </mxGeometry>
        </mxCell>
        <mxCell id="2vNhyGkmXn_JSFe3iauv-192" value="" style="shape=tableRow;horizontal=0;startSize=0;swimlaneHead=0;swimlaneBody=0;fillColor=none;collapsible=0;dropTarget=0;points=[[0,0.5],[1,0.5]];portConstraint=eastwest;top=0;left=0;right=0;bottom=0;align=left;spacingTop=0;spacing=2;spacingRight=0;spacingLeft=8;rounded=1;verticalAlign=top;" vertex="1" parent="2vNhyGkmXn_JSFe3iauv-66">
          <mxGeometry y="390" width="240.0000000000001" height="100" as="geometry" />
        </mxCell>
        <mxCell id="2vNhyGkmXn_JSFe3iauv-193" value="Enum(&lt;br&gt;&amp;nbsp; Regular,&lt;br&gt;&amp;nbsp; Serious,&lt;br&gt;&amp;nbsp; Mandatory,&lt;br&gt;&amp;nbsp; Deadly,&lt;br&gt;)" style="shape=partialRectangle;connectable=0;top=0;left=0;bottom=0;right=0;editable=1;overflow=hidden;whiteSpace=wrap;html=1;align=left;spacingTop=0;spacing=2;spacingRight=0;spacingLeft=8;rounded=1;verticalAlign=top;" vertex="1" parent="2vNhyGkmXn_JSFe3iauv-192">
          <mxGeometry width="90.00000000000011" height="100" as="geometry">
            <mxRectangle width="90.00000000000011" height="100" as="alternateBounds" />
          </mxGeometry>
        </mxCell>
        <mxCell id="2vNhyGkmXn_JSFe3iauv-194" value="Importance?" style="shape=partialRectangle;connectable=0;top=0;left=0;bottom=0;right=0;align=left;spacingLeft=8;overflow=hidden;whiteSpace=wrap;html=1;spacingTop=0;spacing=2;spacingRight=0;rounded=1;verticalAlign=top;" vertex="1" parent="2vNhyGkmXn_JSFe3iauv-192">
          <mxGeometry x="90.00000000000011" width="150" height="100" as="geometry">
            <mxRectangle width="150" height="100" as="alternateBounds" />
          </mxGeometry>
        </mxCell>
        <mxCell id="2vNhyGkmXn_JSFe3iauv-93" style="edgeStyle=orthogonalEdgeStyle;rounded=1;orthogonalLoop=1;jettySize=auto;html=1;exitX=0;exitY=0.5;exitDx=0;exitDy=0;entryX=1;entryY=0.5;entryDx=0;entryDy=0;startArrow=ERmany;startFill=0;endArrow=ERone;endFill=0;jumpStyle=arc;verticalAlign=top;spacingTop=0;spacingLeft=8;" edge="1" parent="1" source="2vNhyGkmXn_JSFe3iauv-70" target="2vNhyGkmXn_JSFe3iauv-41">
          <mxGeometry relative="1" as="geometry">
            <mxPoint x="690" y="155" as="sourcePoint" />
            <mxPoint x="690" y="95" as="targetPoint" />
          </mxGeometry>
        </mxCell>
        <mxCell id="2vNhyGkmXn_JSFe3iauv-104" value="Steps" style="shape=table;startSize=30;container=1;collapsible=1;childLayout=tableLayout;fixedRows=1;rowLines=0;fontStyle=1;align=center;resizeLast=1;html=1;fillColor=#1ba1e2;fontColor=#ffffff;strokeColor=#006EAF;swimlaneFillColor=none;shadow=0;rounded=0;strokeWidth=2;" vertex="1" parent="1">
          <mxGeometry x="1000" y="40" width="240" height="180" as="geometry" />
        </mxCell>
        <mxCell id="2vNhyGkmXn_JSFe3iauv-105" value="" style="shape=tableRow;horizontal=0;startSize=0;swimlaneHead=0;swimlaneBody=0;fillColor=none;collapsible=0;dropTarget=0;points=[[0,0.5],[1,0.5]];portConstraint=eastwest;top=0;left=0;right=0;bottom=1;align=left;spacingTop=0;spacing=2;spacingRight=0;spacingLeft=8;rounded=1;verticalAlign=top;" vertex="1" parent="2vNhyGkmXn_JSFe3iauv-104">
          <mxGeometry y="30" width="240" height="30" as="geometry" />
        </mxCell>
        <mxCell id="2vNhyGkmXn_JSFe3iauv-106" value="Primary Key" style="shape=partialRectangle;connectable=0;top=0;left=0;bottom=0;right=0;fontStyle=1;overflow=hidden;whiteSpace=wrap;html=1;align=left;spacingTop=0;spacing=2;spacingRight=0;spacingLeft=8;rounded=1;verticalAlign=top;" vertex="1" parent="2vNhyGkmXn_JSFe3iauv-105">
          <mxGeometry width="90.00000000000011" height="30" as="geometry">
            <mxRectangle width="90.00000000000011" height="30" as="alternateBounds" />
          </mxGeometry>
        </mxCell>
        <mxCell id="2vNhyGkmXn_JSFe3iauv-107" value="ID" style="shape=partialRectangle;connectable=0;top=0;left=0;bottom=0;right=0;align=left;spacingLeft=8;fontStyle=5;overflow=hidden;whiteSpace=wrap;html=1;spacingTop=0;spacing=2;spacingRight=0;rounded=1;verticalAlign=top;" vertex="1" parent="2vNhyGkmXn_JSFe3iauv-105">
          <mxGeometry x="90.00000000000011" width="149.9999999999999" height="30" as="geometry">
            <mxRectangle width="149.9999999999999" height="30" as="alternateBounds" />
          </mxGeometry>
        </mxCell>
        <mxCell id="2vNhyGkmXn_JSFe3iauv-111" value="" style="shape=tableRow;horizontal=0;startSize=0;swimlaneHead=0;swimlaneBody=0;fillColor=none;collapsible=0;dropTarget=0;points=[[0,0.5],[1,0.5]];portConstraint=eastwest;top=0;left=0;right=0;bottom=1;align=left;spacingTop=0;spacing=2;spacingRight=0;spacingLeft=8;rounded=1;verticalAlign=top;" vertex="1" parent="2vNhyGkmXn_JSFe3iauv-104">
          <mxGeometry y="60" width="240" height="30" as="geometry" />
        </mxCell>
        <mxCell id="2vNhyGkmXn_JSFe3iauv-112" value="Foreign Key" style="shape=partialRectangle;connectable=0;top=0;left=0;bottom=0;right=0;fontStyle=1;overflow=hidden;whiteSpace=wrap;html=1;align=left;spacingTop=0;spacing=2;spacingRight=0;spacingLeft=8;rounded=1;verticalAlign=top;" vertex="1" parent="2vNhyGkmXn_JSFe3iauv-111">
          <mxGeometry width="90.00000000000011" height="30" as="geometry">
            <mxRectangle width="90.00000000000011" height="30" as="alternateBounds" />
          </mxGeometry>
        </mxCell>
        <mxCell id="2vNhyGkmXn_JSFe3iauv-113" value="TaskID" style="shape=partialRectangle;connectable=0;top=0;left=0;bottom=0;right=0;align=left;spacingLeft=8;fontStyle=5;overflow=hidden;whiteSpace=wrap;html=1;spacingTop=0;spacing=2;spacingRight=0;rounded=1;verticalAlign=top;" vertex="1" parent="2vNhyGkmXn_JSFe3iauv-111">
          <mxGeometry x="90.00000000000011" width="149.9999999999999" height="30" as="geometry">
            <mxRectangle width="149.9999999999999" height="30" as="alternateBounds" />
          </mxGeometry>
        </mxCell>
        <mxCell id="2vNhyGkmXn_JSFe3iauv-114" value="" style="shape=tableRow;horizontal=0;startSize=0;swimlaneHead=0;swimlaneBody=0;fillColor=none;collapsible=0;dropTarget=0;points=[[0,0.5],[1,0.5]];portConstraint=eastwest;top=0;left=0;right=0;bottom=0;align=left;spacingTop=0;spacing=2;spacingRight=0;spacingLeft=8;rounded=1;verticalAlign=top;" vertex="1" parent="2vNhyGkmXn_JSFe3iauv-104">
          <mxGeometry y="90" width="240" height="30" as="geometry" />
        </mxCell>
        <mxCell id="2vNhyGkmXn_JSFe3iauv-115" value="Varchar(32)" style="shape=partialRectangle;connectable=0;top=0;left=0;bottom=0;right=0;editable=1;overflow=hidden;whiteSpace=wrap;html=1;align=left;spacingTop=0;spacing=2;spacingRight=0;spacingLeft=8;rounded=1;verticalAlign=top;" vertex="1" parent="2vNhyGkmXn_JSFe3iauv-114">
          <mxGeometry width="90.00000000000011" height="30" as="geometry">
            <mxRectangle width="90.00000000000011" height="30" as="alternateBounds" />
          </mxGeometry>
        </mxCell>
        <mxCell id="2vNhyGkmXn_JSFe3iauv-116" value="Name" style="shape=partialRectangle;connectable=0;top=0;left=0;bottom=0;right=0;align=left;spacingLeft=8;overflow=hidden;whiteSpace=wrap;html=1;spacingTop=0;spacing=2;spacingRight=0;rounded=1;verticalAlign=top;" vertex="1" parent="2vNhyGkmXn_JSFe3iauv-114">
          <mxGeometry x="90.00000000000011" width="149.9999999999999" height="30" as="geometry">
            <mxRectangle width="149.9999999999999" height="30" as="alternateBounds" />
          </mxGeometry>
        </mxCell>
        <mxCell id="2vNhyGkmXn_JSFe3iauv-120" value="" style="shape=tableRow;horizontal=0;startSize=0;swimlaneHead=0;swimlaneBody=0;fillColor=none;collapsible=0;dropTarget=0;points=[[0,0.5],[1,0.5]];portConstraint=eastwest;top=0;left=0;right=0;bottom=0;align=left;spacingTop=0;spacing=2;spacingRight=0;spacingLeft=8;rounded=1;verticalAlign=top;" vertex="1" parent="2vNhyGkmXn_JSFe3iauv-104">
          <mxGeometry y="120" width="240" height="30" as="geometry" />
        </mxCell>
        <mxCell id="2vNhyGkmXn_JSFe3iauv-121" value="Text" style="shape=partialRectangle;connectable=0;top=0;left=0;bottom=0;right=0;editable=1;overflow=hidden;whiteSpace=wrap;html=1;align=left;spacingTop=0;spacing=2;spacingRight=0;spacingLeft=8;rounded=1;verticalAlign=top;" vertex="1" parent="2vNhyGkmXn_JSFe3iauv-120">
          <mxGeometry width="90.00000000000011" height="30" as="geometry">
            <mxRectangle width="90.00000000000011" height="30" as="alternateBounds" />
          </mxGeometry>
        </mxCell>
        <mxCell id="2vNhyGkmXn_JSFe3iauv-122" value="Description?" style="shape=partialRectangle;connectable=0;top=0;left=0;bottom=0;right=0;align=left;spacingLeft=8;overflow=hidden;whiteSpace=wrap;html=1;spacingTop=0;spacing=2;spacingRight=0;rounded=1;verticalAlign=top;" vertex="1" parent="2vNhyGkmXn_JSFe3iauv-120">
          <mxGeometry x="90.00000000000011" width="149.9999999999999" height="30" as="geometry">
            <mxRectangle width="149.9999999999999" height="30" as="alternateBounds" />
          </mxGeometry>
        </mxCell>
        <mxCell id="2vNhyGkmXn_JSFe3iauv-134" value="" style="shape=tableRow;horizontal=0;startSize=0;swimlaneHead=0;swimlaneBody=0;fillColor=none;collapsible=0;dropTarget=0;points=[[0,0.5],[1,0.5]];portConstraint=eastwest;top=0;left=0;right=0;bottom=0;align=left;spacingTop=0;spacing=2;spacingRight=0;spacingLeft=8;rounded=1;verticalAlign=top;" vertex="1" parent="2vNhyGkmXn_JSFe3iauv-104">
          <mxGeometry y="150" width="240" height="30" as="geometry" />
        </mxCell>
        <mxCell id="2vNhyGkmXn_JSFe3iauv-135" value="Boolean" style="shape=partialRectangle;connectable=0;top=0;left=0;bottom=0;right=0;editable=1;overflow=hidden;whiteSpace=wrap;html=1;align=left;spacingTop=0;spacing=2;spacingRight=0;spacingLeft=8;rounded=1;verticalAlign=top;" vertex="1" parent="2vNhyGkmXn_JSFe3iauv-134">
          <mxGeometry width="90.00000000000011" height="30" as="geometry">
            <mxRectangle width="90.00000000000011" height="30" as="alternateBounds" />
          </mxGeometry>
        </mxCell>
        <mxCell id="2vNhyGkmXn_JSFe3iauv-136" value="IsCompleted" style="shape=partialRectangle;connectable=0;top=0;left=0;bottom=0;right=0;align=left;spacingLeft=8;overflow=hidden;whiteSpace=wrap;html=1;spacingTop=0;spacing=2;spacingRight=0;rounded=1;verticalAlign=top;" vertex="1" parent="2vNhyGkmXn_JSFe3iauv-134">
          <mxGeometry x="90.00000000000011" width="149.9999999999999" height="30" as="geometry">
            <mxRectangle width="149.9999999999999" height="30" as="alternateBounds" />
          </mxGeometry>
        </mxCell>
        <mxCell id="2vNhyGkmXn_JSFe3iauv-130" style="edgeStyle=orthogonalEdgeStyle;rounded=1;orthogonalLoop=1;jettySize=auto;html=1;exitX=0;exitY=0.5;exitDx=0;exitDy=0;entryX=1;entryY=0.5;entryDx=0;entryDy=0;startArrow=ERmany;startFill=0;endArrow=ERone;endFill=0;jumpStyle=arc;verticalAlign=top;spacingTop=0;spacingLeft=8;" edge="1" parent="1" source="2vNhyGkmXn_JSFe3iauv-111" target="2vNhyGkmXn_JSFe3iauv-67">
          <mxGeometry relative="1" as="geometry">
            <mxPoint x="950" y="125" as="sourcePoint" />
            <mxPoint x="870" y="95" as="targetPoint" />
          </mxGeometry>
        </mxCell>
      </root>
    </mxGraphModel>
  </diagram>
</mxfile>
